<?xml version="1.0" standalone="no"?>
<!DOCTYPE svg PUBLIC "-//W3C//DTD SVG 20010904//EN"
 "http://www.w3.org/TR/2001/REC-SVG-20010904/DTD/svg10.dtd">
<svg version="1.0" xmlns="http://www.w3.org/2000/svg"
 width="512.000000pt" height="512.000000pt" viewBox="0 0 512.000000 512.000000"
 preserveAspectRatio="xMidYMid meet">

<g transform="translate(0.000000,512.000000) scale(0.100000,-0.100000)"
fill="#000000" stroke="none">
<path d="M3816 4029 c-273 -25 -538 -106 -911 -281 -442 -208 -563 -244 -780
-235 -146 6 -244 31 -375 95 -52 26 -97 48 -101 50 -4 2 -10 -37 -14 -85 -25
-318 -88 -514 -245 -753 -77 -117 -140 -194 -344 -425 -299 -338 -408 -509
-485 -760 -45 -148 -87 -444 -64 -458 4 -3 55 3 113 13 58 10 213 37 345 60
132 22 317 54 410 70 94 16 332 56 530 90 198 33 392 67 430 74 39 8 210 38
380 66 302 49 646 107 1010 170 99 17 207 36 240 41 33 6 64 14 68 18 9 9 -76
89 -136 129 -20 14 -36 27 -34 29 2 2 27 -2 55 -9 29 -6 55 -9 58 -6 3 4 33
93 65 200 33 106 84 270 114 363 29 94 74 238 100 320 26 83 68 218 95 300 87
269 130 411 130 427 0 37 -339 35 -538 -3 -109 -21 -261 -68 -324 -100 -21
-11 -38 -15 -38 -10 0 18 343 239 480 309 149 77 316 146 458 189 50 15 92 31
92 34 0 25 -223 66 -425 79 -171 11 -220 11 -359 -1z m-627 -986 c-74 -146
-92 -253 -64 -385 48 -229 216 -449 453 -593 34 -21 61 -39 60 -40 -2 -2 -48
7 -103 20 -108 24 -222 41 -545 81 -332 40 -512 85 -675 167 -87 43 -169 96
-162 104 3 2 34 10 70 18 208 44 409 181 827 564 96 89 178 161 182 161 4 0
-16 -44 -43 -97z"/>
</g>
</svg>
