<?xml version="1.0" standalone="no"?>
<!DOCTYPE svg PUBLIC "-//W3C//DTD SVG 20010904//EN"
 "http://www.w3.org/TR/2001/REC-SVG-20010904/DTD/svg10.dtd">
<svg version="1.0" xmlns="http://www.w3.org/2000/svg"
 width="512.000000pt" height="512.000000pt" viewBox="0 0 512.000000 512.000000"
 preserveAspectRatio="xMidYMid meet">

<g transform="translate(0.000000,512.000000) scale(0.100000,-0.100000)"
fill="#000000" stroke="none">
<path d="M2325 5114 c-60 -5 -265 -40 -353 -60 -664 -153 -1262 -593 -1613
-1186 -170 -286 -285 -608 -334 -938 -35 -230 -30 -562 11 -805 171 -1013 961
-1844 1963 -2065 214 -47 297 -55 561 -55 264 0 347 8 561 55 677 149 1284
590 1640 1192 172 289 283 603 335 943 26 170 26 560 0 730 -124 812 -596
1489 -1313 1884 -185 103 -431 198 -622 242 -213 49 -307 60 -546 63 -132 2
-262 2 -290 0z m1835 -1019 c91 -14 187 -38 213 -52 4 -3 -58 -27 -138 -54
-174 -59 -315 -121 -450 -196 -107 -60 -330 -206 -380 -248 l-30 -26 32 16
c132 64 322 112 495 125 149 11 348 3 348 -15 0 -10 -156 -516 -245 -795 -25
-79 -112 -355 -190 -602 -25 -82 -50 -148 -55 -148 -5 0 -19 4 -32 9 -13 4
-36 11 -53 15 -26 6 -23 3 20 -27 59 -41 139 -116 131 -124 -6 -6 -26 -10
-546 -98 -179 -31 -431 -74 -560 -96 -129 -22 -287 -49 -350 -59 -161 -26
-1103 -186 -1707 -290 -95 -17 -177 -30 -182 -30 -18 0 -13 171 9 283 61 315
168 501 507 884 240 271 326 387 409 554 85 172 144 405 144 575 l0 73 103
-49 c56 -28 147 -62 202 -76 86 -22 116 -25 215 -21 189 6 307 45 720 237 290
135 529 214 730 239 47 6 96 13 110 15 57 10 431 -4 530 -19z"/>
<path d="M2875 3094 c-307 -279 -437 -380 -580 -452 -72 -36 -186 -72 -227
-72 -40 0 -27 -17 53 -64 195 -116 395 -166 884 -221 146 -16 386 -58 433 -76
36 -14 30 -9 -63 52 -168 109 -282 234 -353 389 -53 113 -65 175 -60 296 4 82
10 111 35 170 16 40 44 93 61 118 17 25 29 46 27 46 -3 0 -97 -84 -210 -186z"/>
</g>
</svg>
