<?xml version="1.0" standalone="no"?>
<!DOCTYPE svg PUBLIC "-//W3C//DTD SVG 20010904//EN"
 "http://www.w3.org/TR/2001/REC-SVG-20010904/DTD/svg10.dtd">
<svg version="1.0" xmlns="http://www.w3.org/2000/svg"
 width="512.000000pt" height="512.000000pt" viewBox="0 0 512.000000 512.000000"
 preserveAspectRatio="xMidYMid meet">

<g transform="translate(0.000000,512.000000) scale(0.100000,-0.100000)"
fill="#000000" stroke="none">
<path d="M2335 5114 c-79 -7 -291 -44 -395 -70 -925 -228 -1668 -984 -1874
-1906 -52 -233 -60 -306 -60 -578 0 -272 8 -346 60 -577 137 -614 533 -1191
1057 -1541 334 -224 657 -349 1082 -419 171 -28 563 -25 745 6 564 96 1027
332 1419 722 404 404 648 900 733 1494 20 137 16 523 -5 665 -90 579 -331
1062 -728 1459 -386 384 -834 616 -1389 717 -123 22 -178 26 -370 29 -124 1
-247 1 -275 -1z m589 -65 c270 -39 495 -109 751 -234 560 -274 994 -746 1228
-1335 124 -310 189 -695 173 -1022 -31 -646 -289 -1229 -743 -1684 -625 -625
-1546 -873 -2408 -649 -448 117 -857 357 -1177 695 -100 104 -237 270 -223
270 3 0 -2 9 -12 19 -17 19 -18 89 -18 1453 0 1415 0 1433 20 1461 254 355
611 649 999 825 444 201 929 270 1410 201z"/>
<path d="M1805 4441 c-112 -29 -187 -124 -187 -236 0 -95 49 -171 145 -222 48
-25 160 -23 213 5 147 76 186 255 81 370 -23 24 -58 52 -78 63 -43 21 -130 32
-174 20z m135 -93 c118 -60 118 -222 0 -286 -109 -58 -234 19 -234 143 0 66
30 116 87 144 54 27 92 27 147 -1z"/>
<path d="M3279 4441 c-165 -33 -251 -226 -161 -360 83 -123 237 -153 353 -69
l42 30 -25 24 -24 25 -51 -26 c-63 -31 -96 -32 -153 -2 -60 30 -90 76 -90 140
0 137 141 211 258 135 l37 -25 22 27 22 27 -22 21 c-45 43 -140 67 -208 53z"/>
<path d="M2200 4205 l0 -235 133 0 c152 0 204 16 231 69 30 58 10 137 -43 169
l-31 19 24 12 c43 23 58 84 34 136 -23 50 -72 65 -218 65 l-130 0 0 -235z
m252 143 c28 -23 29 -48 3 -74 -21 -21 -33 -24 -100 -24 l-75 0 0 55 0 55 78
0 c48 0 84 -5 94 -12z m18 -193 c11 -10 20 -30 20 -45 0 -47 -30 -63 -125 -68
l-85 -5 0 73 0 73 85 -5 c63 -3 89 -9 105 -23z"/>
<path d="M2670 4205 l0 -235 40 0 40 0 0 70 0 70 82 0 c91 0 157 23 185 66 25
39 35 101 22 147 -24 92 -77 116 -246 117 l-123 0 0 -235z m262 140 c27 -11
39 -60 25 -103 -15 -45 -51 -61 -144 -61 l-63 -1 0 89 0 90 48 3 c48 3 103 -4
134 -17z"/>
<path d="M511 4007 c-8 -10 -7 -14 2 -14 8 0 14 6 14 14 0 7 -1 13 -2 13 -2 0
-8 -6 -14 -13z"/>
<path d="M503 3965 c0 -6 6 -12 12 -12 6 0 12 6 12 12 0 6 -6 12 -12 12 -6 0
-12 -6 -12 -12z"/>
<path d="M503 3925 c0 -6 6 -12 12 -12 6 0 12 6 12 12 0 6 -6 12 -12 12 -6 0
-12 -6 -12 -12z"/>
<path d="M503 3885 c0 -6 6 -12 12 -12 6 0 12 6 12 12 0 6 -6 12 -12 12 -6 0
-12 -6 -12 -12z"/>
<path d="M3600 3865 c-144 -23 -318 -70 -447 -120 -133 -52 -127 -49 -330
-144 -345 -161 -476 -198 -658 -188 -122 7 -223 34 -337 92 -47 24 -89 41 -92
38 -3 -4 -6 -33 -6 -66 0 -153 -52 -371 -125 -522 -33 -69 -118 -206 -159
-256 -11 -14 -34 -43 -51 -65 -16 -21 -86 -102 -156 -179 -234 -261 -319 -377
-396 -536 -80 -164 -121 -322 -130 -497 l-6 -102 29 0 c16 0 65 7 109 16 44 9
96 18 115 20 19 3 53 9 75 14 22 5 58 11 80 14 22 3 105 17 185 31 218 39 369
65 430 75 117 19 361 61 495 85 77 14 169 30 205 35 36 5 88 14 115 20 28 5
120 21 205 35 267 44 848 143 970 166 30 6 73 13 95 15 71 10 72 11 24 60 -24
25 -59 54 -77 66 -40 25 -36 33 12 20 45 -13 49 -7 80 94 30 95 216 693 256
819 178 562 169 529 146 538 -32 13 -291 12 -386 -2 -118 -17 -240 -48 -321
-82 -38 -15 -67 -24 -64 -18 4 5 75 55 158 110 189 125 407 233 599 296 81 26
148 51 148 55 0 12 -92 36 -200 53 -149 24 -469 29 -590 10z m-466 -847 c-96
-170 -105 -316 -31 -498 60 -146 205 -305 367 -404 49 -30 49 -30 -75 -3 -38
9 -200 32 -360 52 -159 20 -330 45 -380 56 -179 40 -350 111 -435 179 l-25 20
30 0 c47 0 188 53 267 101 98 57 165 107 278 204 121 105 122 106 232 207 114
104 162 147 165 148 1 0 -14 -28 -33 -62z"/>
<path d="M503 3845 c0 -6 6 -12 12 -12 6 0 12 6 12 12 0 6 -6 12 -12 12 -6 0
-12 -6 -12 -12z"/>
<path d="M503 3805 c0 -6 6 -12 12 -12 6 0 12 6 12 12 0 6 -6 12 -12 12 -6 0
-12 -6 -12 -12z"/>
<path d="M503 3765 c0 -6 6 -12 12 -12 6 0 12 6 12 12 0 6 -6 12 -12 12 -6 0
-12 -6 -12 -12z"/>
<path d="M503 3725 c0 -6 6 -12 12 -12 6 0 12 6 12 12 0 6 -6 12 -12 12 -6 0
-12 -6 -12 -12z"/>
<path d="M503 3685 c0 -6 6 -12 12 -12 6 0 12 6 12 12 0 6 -6 12 -12 12 -6 0
-12 -6 -12 -12z"/>
<path d="M503 3645 c0 -6 6 -12 12 -12 6 0 12 6 12 12 0 6 -6 12 -12 12 -6 0
-12 -6 -12 -12z"/>
<path d="M503 3605 c0 -6 6 -12 12 -12 6 0 12 6 12 12 0 6 -6 12 -12 12 -6 0
-12 -6 -12 -12z"/>
<path d="M503 3565 c0 -6 6 -12 12 -12 6 0 12 6 12 12 0 6 -6 12 -12 12 -6 0
-12 -6 -12 -12z"/>
<path d="M503 3525 c0 -6 6 -12 12 -12 6 0 12 6 12 12 0 6 -6 12 -12 12 -6 0
-12 -6 -12 -12z"/>
<path d="M503 3485 c0 -6 6 -12 12 -12 6 0 12 6 12 12 0 6 -6 12 -12 12 -6 0
-12 -6 -12 -12z"/>
<path d="M503 3445 c0 -6 6 -12 12 -12 6 0 12 6 12 12 0 6 -6 12 -12 12 -6 0
-12 -6 -12 -12z"/>
<path d="M503 3405 c0 -6 6 -12 12 -12 6 0 12 6 12 12 0 6 -6 12 -12 12 -6 0
-12 -6 -12 -12z"/>
<path d="M503 3365 c0 -6 6 -12 12 -12 6 0 12 6 12 12 0 6 -6 12 -12 12 -6 0
-12 -6 -12 -12z"/>
<path d="M503 3325 c0 -6 6 -12 12 -12 6 0 12 6 12 12 0 6 -6 12 -12 12 -6 0
-12 -6 -12 -12z"/>
<path d="M503 3285 c0 -6 6 -12 12 -12 6 0 12 6 12 12 0 6 -6 12 -12 12 -6 0
-12 -6 -12 -12z"/>
<path d="M503 3245 c0 -6 6 -12 12 -12 6 0 12 6 12 12 0 6 -6 12 -12 12 -6 0
-12 -6 -12 -12z"/>
<path d="M503 3205 c0 -6 6 -12 12 -12 6 0 12 6 12 12 0 6 -6 12 -12 12 -6 0
-12 -6 -12 -12z"/>
<path d="M503 3165 c0 -6 6 -12 12 -12 6 0 12 6 12 12 0 6 -6 12 -12 12 -6 0
-12 -6 -12 -12z"/>
<path d="M503 3125 c0 -6 6 -12 12 -12 6 0 12 6 12 12 0 6 -6 12 -12 12 -6 0
-12 -6 -12 -12z"/>
<path d="M503 3085 c0 -6 6 -12 12 -12 6 0 12 6 12 12 0 6 -6 12 -12 12 -6 0
-12 -6 -12 -12z"/>
<path d="M503 3045 c0 -6 6 -12 12 -12 6 0 12 6 12 12 0 6 -6 12 -12 12 -6 0
-12 -6 -12 -12z"/>
<path d="M503 3005 c0 -6 6 -12 12 -12 6 0 12 6 12 12 0 6 -6 12 -12 12 -6 0
-12 -6 -12 -12z"/>
<path d="M503 2965 c0 -6 6 -12 12 -12 6 0 12 6 12 12 0 6 -6 12 -12 12 -6 0
-12 -6 -12 -12z"/>
<path d="M503 2925 c0 -6 6 -12 12 -12 6 0 12 6 12 12 0 6 -6 12 -12 12 -6 0
-12 -6 -12 -12z"/>
<path d="M503 2885 c0 -6 6 -12 12 -12 6 0 12 6 12 12 0 6 -6 12 -12 12 -6 0
-12 -6 -12 -12z"/>
<path d="M503 2845 c0 -6 6 -12 12 -12 6 0 12 6 12 12 0 6 -6 12 -12 12 -6 0
-12 -6 -12 -12z"/>
<path d="M503 2805 c0 -6 6 -12 12 -12 6 0 12 6 12 12 0 6 -6 12 -12 12 -6 0
-12 -6 -12 -12z"/>
<path d="M503 2765 c0 -6 6 -12 12 -12 6 0 12 6 12 12 0 6 -6 12 -12 12 -6 0
-12 -6 -12 -12z"/>
<path d="M503 2725 c0 -6 6 -12 12 -12 6 0 12 6 12 12 0 6 -6 12 -12 12 -6 0
-12 -6 -12 -12z"/>
<path d="M503 2685 c0 -6 6 -12 12 -12 6 0 12 6 12 12 0 6 -6 12 -12 12 -6 0
-12 -6 -12 -12z"/>
<path d="M503 2645 c0 -6 6 -12 12 -12 6 0 12 6 12 12 0 6 -6 12 -12 12 -6 0
-12 -6 -12 -12z"/>
<path d="M503 2605 c0 -6 6 -12 12 -12 6 0 12 6 12 12 0 6 -6 12 -12 12 -6 0
-12 -6 -12 -12z"/>
<path d="M503 2565 c0 -6 6 -12 12 -12 6 0 12 6 12 12 0 6 -6 12 -12 12 -6 0
-12 -6 -12 -12z"/>
<path d="M503 2525 c0 -6 6 -12 12 -12 6 0 12 6 12 12 0 6 -6 12 -12 12 -6 0
-12 -6 -12 -12z"/>
<path d="M503 2485 c0 -6 6 -12 12 -12 6 0 12 6 12 12 0 6 -6 12 -12 12 -6 0
-12 -6 -12 -12z"/>
<path d="M503 2445 c0 -6 6 -12 12 -12 6 0 12 6 12 12 0 6 -6 12 -12 12 -6 0
-12 -6 -12 -12z"/>
<path d="M503 2405 c0 -6 6 -12 12 -12 6 0 12 6 12 12 0 6 -6 12 -12 12 -6 0
-12 -6 -12 -12z"/>
<path d="M503 2365 c0 -6 6 -12 12 -12 6 0 12 6 12 12 0 6 -6 12 -12 12 -6 0
-12 -6 -12 -12z"/>
<path d="M503 2325 c0 -6 6 -12 12 -12 6 0 12 6 12 12 0 6 -6 12 -12 12 -6 0
-12 -6 -12 -12z"/>
<path d="M503 2285 c0 -6 6 -12 12 -12 6 0 12 6 12 12 0 6 -6 12 -12 12 -6 0
-12 -6 -12 -12z"/>
<path d="M503 2245 c0 -6 6 -12 12 -12 6 0 12 6 12 12 0 6 -6 12 -12 12 -6 0
-12 -6 -12 -12z"/>
<path d="M503 2205 c0 -6 6 -12 12 -12 6 0 12 6 12 12 0 6 -6 12 -12 12 -6 0
-12 -6 -12 -12z"/>
<path d="M503 2165 c0 -6 6 -12 12 -12 6 0 12 6 12 12 0 6 -6 12 -12 12 -6 0
-12 -6 -12 -12z"/>
<path d="M503 2125 c0 -6 6 -12 12 -12 6 0 12 6 12 12 0 6 -6 12 -12 12 -6 0
-12 -6 -12 -12z"/>
<path d="M503 2085 c0 -6 6 -12 12 -12 6 0 12 6 12 12 0 6 -6 12 -12 12 -6 0
-12 -6 -12 -12z"/>
<path d="M503 2045 c0 -6 6 -12 12 -12 6 0 12 6 12 12 0 6 -6 12 -12 12 -6 0
-12 -6 -12 -12z"/>
<path d="M503 2005 c0 -6 6 -12 12 -12 6 0 12 6 12 12 0 6 -6 12 -12 12 -6 0
-12 -6 -12 -12z"/>
<path d="M503 1965 c0 -6 6 -12 12 -12 6 0 12 6 12 12 0 6 -6 12 -12 12 -6 0
-12 -6 -12 -12z"/>
<path d="M503 1925 c0 -6 6 -12 12 -12 6 0 12 6 12 12 0 6 -6 12 -12 12 -6 0
-12 -6 -12 -12z"/>
<path d="M503 1885 c0 -6 6 -12 12 -12 6 0 12 6 12 12 0 6 -6 12 -12 12 -6 0
-12 -6 -12 -12z"/>
<path d="M503 1845 c0 -6 6 -12 12 -12 6 0 12 6 12 12 0 6 -6 12 -12 12 -6 0
-12 -6 -12 -12z"/>
<path d="M503 1805 c0 -6 6 -12 12 -12 6 0 12 6 12 12 0 6 -6 12 -12 12 -6 0
-12 -6 -12 -12z"/>
<path d="M503 1765 c0 -6 6 -12 12 -12 6 0 12 6 12 12 0 6 -6 12 -12 12 -6 0
-12 -6 -12 -12z"/>
<path d="M503 1725 c0 -6 6 -12 12 -12 6 0 12 6 12 12 0 6 -6 12 -12 12 -6 0
-12 -6 -12 -12z"/>
<path d="M503 1685 c0 -6 6 -12 12 -12 6 0 12 6 12 12 0 6 -6 12 -12 12 -6 0
-12 -6 -12 -12z"/>
<path d="M503 1645 c0 -6 6 -12 12 -12 6 0 12 6 12 12 0 6 -6 12 -12 12 -6 0
-12 -6 -12 -12z"/>
<path d="M503 1605 c0 -6 6 -12 12 -12 6 0 12 6 12 12 0 6 -6 12 -12 12 -6 0
-12 -6 -12 -12z"/>
<path d="M503 1565 c0 -6 6 -12 12 -12 6 0 12 6 12 12 0 6 -6 12 -12 12 -6 0
-12 -6 -12 -12z"/>
<path d="M503 1525 c0 -6 6 -12 12 -12 6 0 12 6 12 12 0 6 -6 12 -12 12 -6 0
-12 -6 -12 -12z"/>
<path d="M503 1485 c0 -6 6 -12 12 -12 6 0 12 6 12 12 0 6 -6 12 -12 12 -6 0
-12 -6 -12 -12z"/>
<path d="M503 1445 c0 -6 6 -12 12 -12 6 0 12 6 12 12 0 6 -6 12 -12 12 -6 0
-12 -6 -12 -12z"/>
<path d="M503 1405 c0 -6 6 -12 12 -12 6 0 12 6 12 12 0 6 -6 12 -12 12 -6 0
-12 -6 -12 -12z"/>
<path d="M503 1365 c0 -6 6 -12 12 -12 6 0 12 6 12 12 0 6 -6 12 -12 12 -6 0
-12 -6 -12 -12z"/>
<path d="M2970 1315 c0 -42 -11 -58 -25 -35 -3 6 -22 10 -41 10 -50 0 -94 -45
-94 -95 0 -70 79 -117 141 -85 13 7 19 7 19 0 0 -5 11 -10 25 -10 l25 0 0 130
0 130 -25 0 c-23 0 -25 -4 -25 -45z m-18 -82 c38 -34 12 -93 -41 -93 -34 0
-51 17 -51 51 0 52 54 77 92 42z"/>
<path d="M1929 1327 c-48 -32 -68 -91 -48 -143 28 -73 118 -106 189 -69 33 17
37 27 17 44 -10 8 -16 8 -25 -1 -6 -6 -29 -11 -52 -12 -34 -1 -46 4 -66 27
-32 38 -30 72 5 108 33 32 62 36 105 14 24 -13 31 -13 38 -3 13 21 10 27 -22
43 -43 22 -101 19 -141 -8z"/>
<path d="M503 1325 c0 -6 6 -12 12 -12 6 0 12 6 12 12 0 6 -6 12 -12 12 -6 0
-12 -6 -12 -12z"/>
<path d="M503 1285 c0 -6 6 -12 12 -12 6 0 12 6 12 12 0 6 -6 12 -12 12 -6 0
-12 -6 -12 -12z"/>
<path d="M2154 1276 c-26 -20 -11 -31 44 -31 36 0 47 -4 50 -17 3 -15 -4 -18
-40 -18 -55 0 -80 -18 -80 -55 0 -41 25 -55 104 -54 l68 1 0 74 c0 61 -4 78
-20 94 -24 24 -96 27 -126 6z m96 -111 c0 -19 -36 -38 -60 -30 -22 7 -27 31
-7 38 27 12 67 7 67 -8z"/>
<path d="M2357 1272 c-34 -38 -16 -76 46 -97 17 -5 32 -16 35 -22 5 -17 -74
-18 -84 -2 -4 8 -10 6 -17 -6 -22 -39 74 -62 121 -29 43 30 22 80 -42 101 -17
5 -32 15 -34 23 -4 10 6 12 41 8 31 -4 47 -1 51 7 14 36 -87 50 -117 17z"/>
<path d="M2534 1276 c-26 -20 -11 -31 44 -31 36 0 47 -4 50 -17 3 -15 -4 -18
-40 -18 -48 0 -60 -6 -75 -35 -13 -25 0 -61 24 -69 10 -3 46 -5 81 -4 l62 1 0
73 c0 61 -4 78 -20 94 -24 24 -96 27 -126 6z m97 -115 c-19 -34 -81 -39 -81
-6 0 17 16 23 58 24 29 1 32 -1 23 -18z"/>
<path d="M3089 1261 c-21 -22 -29 -39 -29 -66 0 -78 101 -125 161 -76 21 17
22 20 7 26 -9 4 -26 1 -37 -5 -16 -8 -28 -8 -48 2 -52 25 -40 38 36 38 77 0
81 3 61 56 -15 38 -39 53 -83 54 -29 0 -45 -7 -68 -29z m109 -24 c24 -19 11
-27 -43 -27 -45 0 -53 3 -48 16 11 30 58 36 91 11z"/>
<path d="M503 1245 c0 -6 6 -12 12 -12 6 0 12 6 12 12 0 6 -6 12 -12 12 -6 0
-12 -6 -12 -12z"/>
<path d="M503 1205 c0 -6 6 -12 12 -12 6 0 12 6 12 12 0 6 -6 12 -12 12 -6 0
-12 -6 -12 -12z"/>
<path d="M503 1165 c0 -6 6 -12 12 -12 6 0 12 6 12 12 0 6 -6 12 -12 12 -6 0
-12 -6 -12 -12z"/>
<path d="M500 1135 c0 -2 6 -8 13 -14 10 -8 14 -7 14 2 0 8 -6 14 -14 14 -7 0
-13 -1 -13 -2z"/>
<path d="M3236 863 c-3 -4 -6 -15 -6 -25 0 -20 26 -25 32 -7 3 9 10 8 25 -1
25 -16 53 -7 53 18 0 15 -8 19 -49 20 -27 0 -52 -2 -55 -5z"/>
<path d="M1440 735 l0 -125 25 0 c22 0 25 4 25 35 0 33 2 35 33 35 27 0 36 -6
51 -35 15 -28 25 -35 48 -35 l29 0 -25 37 -26 37 22 24 c34 35 31 97 -5 128
-24 21 -38 24 -103 24 l-74 0 0 -125z m141 75 c26 -14 24 -55 -3 -74 -12 -9
-37 -16 -55 -16 -33 0 -33 0 -33 50 l0 50 36 0 c19 0 44 -5 55 -10z"/>
<path d="M2080 820 c0 -16 -4 -30 -10 -30 -5 0 -10 -7 -10 -15 0 -8 5 -15 10
-15 6 0 10 -24 10 -53 0 -68 19 -97 65 -97 36 0 48 10 40 33 -4 9 -15 12 -31
9 -23 -4 -24 -2 -24 52 0 56 0 56 30 56 20 0 30 5 30 15 0 10 -10 15 -30 15
-27 0 -30 3 -30 30 0 25 -4 30 -25 30 -21 0 -25 -5 -25 -30z"/>
<path d="M1709 771 c-45 -45 -36 -126 18 -150 56 -25 150 2 122 35 -8 10 -15
12 -23 4 -23 -23 -96 -6 -96 22 0 4 32 8 70 8 64 0 70 2 70 20 0 29 -26 76
-45 84 -40 15 -87 6 -116 -23z m111 -31 c10 -19 8 -20 -40 -20 -51 0 -60 6
-38 28 19 19 66 15 78 -8z"/>
<path d="M1910 780 c-35 -35 -19 -74 40 -91 23 -7 40 -18 40 -27 0 -12 -10
-14 -49 -9 -56 7 -77 -12 -35 -32 56 -25 134 -1 134 42 0 23 -26 50 -60 61
-19 6 -36 17 -38 25 -4 11 4 13 37 8 32 -4 44 -2 48 10 14 36 -83 47 -117 13z"/>
<path d="M2235 787 c-29 -22 -10 -38 36 -31 25 4 44 2 54 -6 26 -22 17 -30
-33 -30 -35 0 -54 -5 -65 -18 -21 -23 -22 -56 -1 -76 18 -19 85 -21 102 -4 9
9 12 9 12 0 0 -7 9 -12 20 -12 18 0 20 7 20 79 0 71 -2 82 -22 95 -28 20 -98
21 -123 3z m103 -109 c-3 -7 -16 -20 -31 -28 -24 -13 -28 -13 -44 3 -16 15
-16 19 -3 27 23 15 83 13 78 -2z"/>
<path d="M2430 721 c0 -71 2 -82 22 -95 29 -21 77 -20 100 1 17 15 18 15 18 0
0 -10 8 -17 20 -17 19 0 20 7 20 95 0 88 -1 95 -20 95 -17 0 -20 -7 -20 -47 0
-60 -18 -97 -50 -101 -35 -5 -50 22 -50 90 0 51 -2 58 -20 58 -18 0 -20 -7
-20 -79z"/>
<path d="M2670 705 c0 -88 1 -95 20 -95 17 0 20 7 20 44 0 61 14 94 45 102 16
4 25 13 25 25 0 24 -27 25 -52 2 -17 -15 -18 -15 -18 0 0 10 -8 17 -20 17 -19
0 -20 -7 -20 -95z"/>
<path d="M2815 787 c-29 -22 -10 -38 36 -31 25 4 44 2 54 -6 26 -22 17 -30
-33 -30 -73 0 -109 -53 -64 -93 22 -20 83 -22 100 -5 9 9 12 9 12 0 0 -7 9
-12 20 -12 18 0 20 7 20 79 0 71 -2 82 -22 95 -28 20 -98 21 -123 3z m105
-104 c-1 -33 -59 -53 -80 -28 -12 14 -12 18 1 26 17 11 79 12 79 2z"/>
<path d="M3045 788 c-33 -19 -44 -41 -45 -85 0 -36 5 -46 35 -70 19 -15 35
-34 35 -40 0 -7 5 -13 10 -13 6 0 10 -5 10 -11 0 -6 -6 -9 -14 -6 -15 6 -30
-16 -19 -27 12 -12 51 -6 64 10 11 13 10 19 0 37 -10 15 -10 22 -2 25 6 2 21
12 33 22 19 15 21 21 11 31 -10 10 -16 10 -25 1 -31 -31 -98 0 -98 45 0 41 68
71 96 43 8 -8 15 -6 25 6 11 14 11 18 -6 30 -23 17 -82 18 -110 2z"/>
<path d="M3224 786 c-26 -20 -11 -31 44 -31 36 0 47 -4 50 -17 3 -15 -4 -18
-42 -18 -73 0 -108 -48 -67 -89 16 -16 33 -20 90 -19 l71 0 0 68 c0 89 -22
120 -84 120 -23 0 -51 -6 -62 -14z m94 -113 c-4 -23 -54 -41 -69 -26 -21 21
-2 43 36 43 29 0 36 -3 33 -17z"/>
<path d="M3433 776 c-23 -20 -28 -32 -28 -71 0 -39 5 -51 28 -71 44 -37 120
-30 154 15 7 9 13 35 13 58 0 34 -5 46 -31 67 -41 35 -97 35 -136 2z m109 -33
c38 -34 12 -93 -41 -93 -35 0 -51 17 -51 55 0 17 5 36 12 43 17 17 58 15 80
-5z"/>
</g>
</svg>
