<?xml version="1.0" standalone="no"?>
<!DOCTYPE svg PUBLIC "-//W3C//DTD SVG 20010904//EN"
 "http://www.w3.org/TR/2001/REC-SVG-20010904/DTD/svg10.dtd">
<svg version="1.0" xmlns="http://www.w3.org/2000/svg"
 width="512.000000pt" height="512.000000pt" viewBox="0 0 512.000000 512.000000"
 preserveAspectRatio="xMidYMid meet">

<g transform="translate(0.000000,512.000000) scale(0.100000,-0.100000)"
fill="#000000" stroke="none">
<path d="M3890 4034 c-346 -32 -593 -103 -946 -269 -429 -204 -587 -255 -784
-255 -151 0 -269 30 -424 106 -49 25 -90 43 -91 42 -2 -2 -8 -65 -15 -141 -23
-277 -95 -482 -247 -709 -69 -103 -143 -194 -321 -395 -176 -198 -236 -272
-314 -387 -151 -226 -230 -461 -253 -758 l-7 -88 26 0 c15 0 93 11 174 25 153
27 321 56 727 125 132 22 359 61 505 86 146 25 292 49 324 54 32 5 80 14 105
19 25 6 118 22 206 36 88 14 291 48 450 75 160 28 333 57 385 65 52 8 167 28
255 44 88 16 211 37 273 46 61 10 112 22 112 27 0 14 -91 97 -138 125 -24 14
-41 28 -38 30 3 3 28 -1 55 -8 32 -8 55 -9 60 -3 5 5 52 149 106 319 53 171
117 375 142 455 25 80 62 199 83 265 21 66 70 223 110 348 39 126 69 232 65
235 -4 4 -100 7 -213 7 -262 -1 -424 -30 -620 -113 -116 -48 -104 -37 103 102
163 108 320 196 472 262 107 47 323 124 347 124 7 0 20 6 30 13 17 13 14 15
-30 30 -133 42 -507 76 -674 61z m-652 -901 c-2 -5 -22 -44 -44 -88 -57 -110
-74 -173 -74 -275 0 -246 155 -497 413 -671 49 -32 93 -59 98 -59 5 0 9 -4 9
-9 0 -5 -24 -3 -52 5 -84 21 -271 52 -413 68 -359 41 -474 60 -637 106 -122
34 -237 84 -327 143 -72 46 -73 44 44 71 39 9 115 38 170 66 158 78 313 201
675 534 112 103 149 132 138 109z"/>
</g>
</svg>
